<svg width="100" height="100" viewBox="0 0 100 100" fill="none" xmlns="http://www.w3.org/2000/svg">
<rect x="1" y="1" width="98" height="98" fill="#EB6670" stroke="black" stroke-width="2"/>
<path d="M18.7637 87.4186L22.7077 62.0408C23.4473 57.2819 27.1944 53.5561 31.9576 52.8439L34.1849 52.5108C38.868 51.8105 42.3333 47.7884 42.3333 43.0532C42.3333 41.0309 43.2657 39.1216 44.8604 37.878L43.938 36.6951L44.8604 37.878L45.3709 37.4799C48.1561 35.308 52.0693 35.3367 54.8224 37.5492L55.199 37.8519L56.1209 36.7048L55.199 37.8519C56.7592 39.1057 57.6667 40.9993 57.6667 43.0008C57.6667 47.7652 61.1589 51.8095 65.8724 52.5039L68.1838 52.8443C73.0127 53.5557 76.8055 57.3466 77.5191 62.1752L81.262 87.4999H50.1381H18.8333C18.8181 87.4999 18.8098 87.497 18.804 87.4943C18.7966 87.4908 18.7879 87.4846 18.7798 87.4753C18.7718 87.4659 18.7671 87.4563 18.7648 87.4485C18.763 87.4424 18.7614 87.4337 18.7637 87.4186Z" fill="#5C5C5C" stroke="black" stroke-width="3"/>
<path d="M64.0833 26.8721C64.0833 31.422 62.3982 36.4517 59.6599 40.3262C56.9049 44.2244 53.2921 46.686 49.5417 46.686C45.7912 46.686 42.1785 44.2244 39.4234 40.3262C36.6851 36.4517 35 31.422 35 26.8721C35 22.3755 36.6435 18.8098 39.2295 16.3627C41.8268 13.9049 45.4563 12.5 49.5417 12.5C53.627 12.5 57.2566 13.9049 59.8538 16.3627C62.4398 18.8098 64.0833 22.3755 64.0833 26.8721Z" fill="#5C5C5C" stroke="black" stroke-width="3"/>
</svg>
