<svg width="344" height="368" viewBox="0 0 344 368" fill="none" xmlns="http://www.w3.org/2000/svg">
<path d="M192.5 223C178.683 210.841 189.782 204.214 202.5 197L151 205.5L147 212.5L152.5 223H192.5Z" fill="#E4212B" stroke="black" stroke-width="7"/>
<path d="M282.22 239C315.5 237.5 304.647 260.887 282.22 267C229.346 251.111 200.943 241.763 159 222C217.281 224.804 255.65 239 282.22 239Z" fill="#EB6670" stroke="black" stroke-width="5"/>
<path d="M74.5 77.5001C24 68.4999 -8 13 32 27.5M92.5 68.5002C68.5 60.5002 31 -3 67 6M107 61.0001C89.0001 41.0001 81 -6.5 108.5 14" stroke="black" stroke-width="10" stroke-linejoin="round"/>
<path d="M258.592 88.3982C265.032 93.707 274.6 99.8721 284.662 106.356C286.532 107.561 288.42 108.777 290.307 110.001C302.57 117.951 315.063 126.351 324.369 134.757C329.016 138.954 332.687 142.994 335.121 146.811C337.559 150.636 338.544 153.9 338.396 156.689C338.124 161.831 333.538 168.702 315.771 175.551C280.286 189.231 252.752 193.477 228.385 195.609C221.878 196.178 215.516 196.598 209.24 197.012C192.218 198.135 175.829 199.216 158.876 203.128C155.823 203.833 153.029 204.807 150.979 206.334C149.904 207.135 148.843 208.228 148.17 209.7C147.464 211.241 147.334 212.873 147.659 214.414C148.245 217.183 150.214 219.307 151.913 220.786C153.766 222.4 156.167 223.977 158.871 225.512C169.592 231.596 188.128 238.69 208 245.781C216.611 248.853 225.479 251.927 234.193 254.948C245.87 258.995 257.27 262.947 267.408 266.672C276.218 269.909 283.888 272.91 289.746 275.566C292.677 276.895 295.071 278.1 296.892 279.17C298.811 280.297 299.724 281.064 300.034 281.42C300.646 282.124 301.008 283.057 300.794 284.712C300.56 286.528 299.636 288.975 297.761 292.036C294.021 298.142 287.299 305.409 278.763 312.92C261.737 327.9 238.728 342.787 221.806 350.144C187.961 364.861 149.976 367.018 114.682 356.227C79.389 345.437 49.1039 322.408 29.2743 291.281C9.44473 260.155 1.37212 222.975 6.50845 186.428C11.6448 149.881 29.653 116.366 57.2939 91.9118C84.9349 67.4572 120.395 53.6677 157.295 53.0236C194.195 52.3795 230.115 64.9231 258.592 88.3982Z" fill="#5C5C5C" stroke="black" stroke-width="10"/>
<ellipse cx="187.5" cy="125.5" rx="40.5" ry="36.5" fill="white" stroke="black" stroke-width="5"/>
<circle cx="197" cy="128" r="18" fill="#B8E3E1" stroke="#6A9E9C" stroke-width="2"/>
<circle cx="200" cy="129" r="9" fill="black"/>
<circle cx="203" cy="126" r="2" fill="white"/>
</svg>
