<svg width="100" height="100" viewBox="0 0 100 100" fill="none" xmlns="http://www.w3.org/2000/svg">
<path d="M55.4666 36.3307L56.3679 35.1316L55.4666 36.3307L56.2417 36.9132C58.0133 38.2447 59.0556 40.3319 59.0556 42.5481C59.0556 47.568 62.7601 51.8178 67.733 52.5029L70.9859 52.9511C76.646 53.7308 81.128 58.1247 82.0198 63.7683L85.3024 84.5396C85.797 87.6691 83.3783 90.5 80.21 90.5H50.159H20.11C16.7905 90.5 14.265 87.5201 14.8091 84.2456L18.238 63.611C19.1623 58.0489 23.5921 53.7316 29.1761 52.9506L32.326 52.5101C37.2676 51.819 40.9444 47.5922 40.9444 42.6025C40.9444 40.3649 42.0136 38.2619 43.8215 36.9435L42.9376 35.7315L43.8215 36.9435L44.7674 36.2536C47.9626 33.9234 52.3053 33.9547 55.4666 36.3307Z" fill="black" stroke="black" stroke-width="3"/>
<path d="M65.5 25.0732C65.5 29.9981 63.7041 35.434 60.7898 39.6196C57.8569 43.8319 54.0048 46.5 50 46.5C45.9952 46.5 42.1431 43.8319 39.2102 39.6196C36.2959 35.434 34.5 29.9981 34.5 25.0732C34.5 20.1997 36.2562 16.3314 39.0183 13.6783C41.7901 11.0159 45.6566 9.5 50 9.5C54.3434 9.5 58.2099 11.0159 60.9817 13.6783C63.7438 16.3314 65.5 20.1997 65.5 25.0732Z" fill="black" stroke="black" stroke-width="3"/>
</svg>
