<?xml version="1.0" standalone="no"?>
<!DOCTYPE svg PUBLIC "-//W3C//DTD SVG 20010904//EN"
 "http://www.w3.org/TR/2001/REC-SVG-20010904/DTD/svg10.dtd">
<svg version="1.0" xmlns="http://www.w3.org/2000/svg"
 width="736.000000pt" height="736.000000pt" viewBox="0 0 736.000000 736.000000"
 preserveAspectRatio="xMidYMid meet">
<metadata>
Created by potrace 1.11, written by Peter Selinger 2001-2013
</metadata>
<g transform="translate(0.000000,736.000000) scale(0.100000,-0.100000)"
fill="#000000" stroke="none">
<path d="M1377 7349 c-77 -18 -143 -72 -171 -141 -73 -175 37 -489 292 -831
82 -110 247 -286 323 -344 27 -20 46 -40 44 -43 -3 -4 -32 -24 -66 -44 -61
-36 -63 -37 -113 -25 -426 99 -882 414 -1032 713 -38 76 -43 113 -17 123 15 6
125 -13 189 -32 19 -6 24 3 54 85 18 50 31 92 29 94 -13 11 -112 37 -179 47
-235 36 -363 -111 -287 -329 103 -295 505 -648 926 -811 58 -23 110 -41 117
-41 33 0 16 -23 -67 -90 -669 -541 -1095 -1352 -1168 -2223 -84 -1001 328
-2012 1088 -2669 916 -793 2189 -1006 3302 -553 638 260 1496 922 1670 1289
62 131 59 216 -11 286 -35 35 -288 170 -319 170 -28 0 -3 18 79 58 171 83 292
228 293 350 0 69 -18 108 -75 156 -71 61 -141 77 -383 86 -249 10 -355 25
-870 124 -214 41 -480 89 -590 106 -110 17 -210 33 -221 35 -34 7 -160 136
-174 179 -21 64 18 119 142 200 49 31 61 34 153 40 619 40 902 72 1259 146
319 66 680 173 971 287 173 68 240 101 333 166 140 96 207 201 207 322 0 41
-8 92 -19 122 -40 117 -175 283 -350 432 -170 144 -265 211 -891 623 -137 90
-302 205 -365 254 -268 210 -459 329 -706 442 -585 266 -1236 353 -1860 247
-142 -24 -343 -71 -423 -100 -24 -8 -49 -15 -56 -15 -18 0 -107 141 -158 250
-83 176 -135 389 -123 501 7 73 14 89 37 89 22 0 88 -31 131 -62 l27 -18 60
79 61 80 -27 21 c-15 11 -60 37 -102 58 -67 33 -83 37 -152 37 -70 0 -81 -3
-121 -30 -84 -59 -127 -191 -113 -347 18 -209 124 -505 245 -684 16 -25 30
-46 30 -48 0 -1 -33 -17 -74 -35 l-75 -33 -70 45 c-272 176 -601 658 -627 917
-9 83 5 96 99 93 l75 -2 22 90 c12 49 20 92 18 94 -8 9 -110 25 -147 24 -20
-1 -53 -5 -74 -10z m2743 -1830 c88 -14 218 -59 287 -100 31 -19 90 -65 130
-103 218 -205 271 -486 141 -749 -51 -101 -167 -223 -273 -285 -420 -246 -977
-67 -1141 368 -25 68 -28 87 -28 200 0 111 3 133 27 196 43 115 75 164 166
254 98 97 166 140 284 181 137 47 272 60 407 38z m-265 -2689 c400 -45 657
-86 1190 -190 462 -90 596 -109 854 -120 225 -9 267 -18 318 -66 40 -38 42
-63 7 -132 -42 -85 -169 -183 -293 -227 -43 -15 -46 -14 -195 31 -83 25 -178
54 -211 64 -304 91 -728 231 -1050 348 -245 89 -755 301 -725 302 8 0 56 -5
105 -10z"/>
<path d="M4165 4943 c-44 -23 -65 -44 -86 -85 -45 -87 -8 -193 83 -239 128
-65 281 52 254 195 -21 110 -155 180 -251 129z m165 -78 c26 -32 -13 -81 -47
-59 -35 22 -23 74 17 74 10 0 23 -7 30 -15z"/>
</g>
</svg>
